<?xml version="1.0" encoding="UTF-8" standalone="no"?>
<!-- Created with Inkscape (http://www.inkscape.org/) -->

<svg
   xmlns:dc="http://purl.org/dc/elements/1.1/"
   xmlns:cc="http://creativecommons.org/ns#"
   xmlns:rdf="http://www.w3.org/1999/02/22-rdf-syntax-ns#"
   xmlns:svg="http://www.w3.org/2000/svg"
   xmlns="http://www.w3.org/2000/svg"
   xmlns:xlink="http://www.w3.org/1999/xlink"
   xmlns:sodipodi="http://sodipodi.sourceforge.net/DTD/sodipodi-0.dtd"
   xmlns:inkscape="http://www.inkscape.org/namespaces/inkscape"
   width="800"
   height="600"
   id="svg2"
   version="1.1"
   inkscape:version="0.48.2 r9819"
   sodipodi:docname="background2.svg"
   inkscape:export-filename="/home/johnicholas/Desktop/asteroids.js/background2.png"
   inkscape:export-xdpi="90"
   inkscape:export-ydpi="90">
  <defs
     id="defs4">
    <linearGradient
       id="linearGradient3788">
      <stop
         style="stop-color:#aa4400;stop-opacity:1;"
         offset="0"
         id="stop3790" />
      <stop
         id="stop3796"
         offset="0.5"
         style="stop-color:#aa4429;stop-opacity:1;" />
      <stop
         style="stop-color:#aa4466;stop-opacity:1;"
         offset="0.75"
         id="stop3798" />
      <stop
         style="stop-color:#aa44ff;stop-opacity:1;"
         offset="1"
         id="stop3792" />
    </linearGradient>
    <linearGradient
       inkscape:collect="always"
       xlink:href="#linearGradient3788"
       id="linearGradient3794"
       x1="1245.7142"
       y1="759.28571"
       x2="17.142857"
       y2="2.1428571"
       gradientUnits="userSpaceOnUse" />
    <linearGradient
       inkscape:collect="always"
       xlink:href="#linearGradient3788"
       id="linearGradient3849"
       gradientUnits="userSpaceOnUse"
       x1="1245.7142"
       y1="759.28571"
       x2="17.142857"
       y2="2.1428571" />
  </defs>
  <sodipodi:namedview
     id="base"
     pagecolor="#ffffff"
     bordercolor="#666666"
     borderopacity="1.0"
     inkscape:pageopacity="0.0"
     inkscape:pageshadow="2"
     inkscape:zoom="0.35"
     inkscape:cx="375"
     inkscape:cy="487.14286"
     inkscape:document-units="px"
     inkscape:current-layer="layer1"
     showgrid="false"
     inkscape:window-width="1024"
     inkscape:window-height="744"
     inkscape:window-x="0"
     inkscape:window-y="24"
     inkscape:window-maximized="1" />
  <metadata
     id="metadata7">
    <rdf:RDF>
      <cc:Work
         rdf:about="">
        <dc:format>image/svg+xml</dc:format>
        <dc:type
           rdf:resource="http://purl.org/dc/dcmitype/StillImage" />
        <dc:title></dc:title>
      </cc:Work>
    </rdf:RDF>
  </metadata>
  <g
     inkscape:label="Layer 1"
     inkscape:groupmode="layer"
     id="layer1"
     transform="translate(0,-452.36218)">
    <path
       sodipodi:type="spiral"
       style="fill:none;stroke:#000000;stroke-width:1px;stroke-linecap:butt;stroke-linejoin:miter;stroke-opacity:1"
       id="path3004"
       sodipodi:cx="-288.57144"
       sodipodi:cy="405"
       sodipodi:expansion="5"
       sodipodi:revolution="3"
       sodipodi:radius="544.90588"
       sodipodi:argument="-20.116842"
       sodipodi:t0="0"
       d="m -288.57144,405 c 2.2e-4,-7e-4 0.001,2.4e-4 0.002,6.5e-4 0.0223,0.0155 -0.0127,0.0574 -0.023,0.0662 -0.16816,0.14347 -0.41253,-0.0935 -0.48686,-0.22591 -0.46527,-0.82887 0.48948,-1.7149 1.178,-1.98088 2.75069,-1.06262 5.22471,1.82815 5.86032,4.18519 1.94211,7.20189 -5.30925,13.02867 -11.61979,14.20473 -16.1021,3.00088 -28.25508,-12.89691 -30.03338,-27.24993 -3.98443,-32.15917 27.51212,-55.28901 56.56883,-57.47744 59.0061,-4.44409 99.98748,53.22529 101.95228,107.12407 3.69412,101.33781 -95.44906,169.89451 -188.84698,170.32966 -165.04777,0.76898 -274.4562,-161.1309 -271.10999,-314.38187 5.61952,-257.364639 258.94589,-425.23576 499.41541,-414.59454"
       transform="translate(0,287.36218)" />
    <rect
       style="fill:none;stroke:#000000"
       id="rect3006"
       width="522.85712"
       height="1040"
       x="-682.85718"
       y="475.21933" />
    <path
       sodipodi:type="spiral"
       style="fill:none;stroke:#000000;stroke-width:1px;stroke-linecap:butt;stroke-linejoin:miter;stroke-opacity:1"
       id="path3780"
       sodipodi:cx="-557.14288"
       sodipodi:cy="-237.85715"
       sodipodi:expansion="5"
       sodipodi:revolution="3"
       sodipodi:radius="672.68573"
       sodipodi:argument="-18.738899"
       sodipodi:t0="0"
       d="m -557.14288,-237.85715 c 8.9e-4,1e-4 6e-5,0.002 -3e-4,0.003 -0.0135,0.0307 -0.0726,-0.002 -0.0857,-0.0122 -0.21362,-0.16981 0.0157,-0.52195 0.15852,-0.64335 0.89419,-0.75983 2.1936,0.18732 2.67878,0.9586 1.9383,3.08135 -0.97883,6.76287 -3.68425,8.09067 -8.2664,4.05709 -17.04189,-3.35012 -19.95993,-10.71778 -7.44572,-18.7995 8.9408,-37.28569 25.91035,-42.83629 38.02173,-12.43658 73.49837,20.25243 83.02484,54.94014 19.3456,70.44107 -40.83101,133.739447 -105.6706,148.872701 -121.90816,28.452788 -228.43003,-75.449571 -251.0556,-188.508761 -39.98269,-199.79207 130.29081,-370.65893 316.76342,-402.86444 313.15594,-54.08486 576.488841,213.12967 620.49189,507.00342"
       transform="translate(0,287.36218)" />
    <path
       transform="translate(0,287.36218)"
       d="m -557.14288,-237.85715 c 0.0107,0.001 0.001,0.0227 -0.004,0.0322 -0.10008,0.18999 -0.42353,-0.002 -0.51229,-0.0896 -0.79999,-0.78577 0.11655,-2.08947 0.80605,-2.55428 2.98419,-2.01175 6.6667,0.88585 7.9638,3.52871 3.94036,8.02857 -3.2878,16.51884 -10.49299,19.23418 -17.66649,6.65779 -34.74218,-8.7359 -39.5467,-24.79412 -10.19224,-34.06572 19.08068,-65.16741 50.38714,-72.77036 59.81577,-14.52661 112.36002,36.6103 123.46207,92.08684 19.5975,97.92801 -64.05086,181.62034 -155.56784,196.866537 -151.83558,25.2949236 -278.98345,-104.566607 -298.9163,-247.364527 -31.46216,-225.3933 161.75995,-411.21917 374.87107,-436.23172 322.87761,-37.89569 585.832081,239.67152 616.12102,546.34142"
       sodipodi:t0="0"
       sodipodi:argument="-18.738899"
       sodipodi:radius="672.68573"
       sodipodi:revolution="3"
       sodipodi:expansion="4"
       sodipodi:cy="-237.85715"
       sodipodi:cx="-557.14288"
       id="path3782"
       style="fill:none;stroke:#000000;stroke-width:1px;stroke-linecap:butt;stroke-linejoin:miter;stroke-opacity:1"
       sodipodi:type="spiral" />
    <g
       id="g3838"
       transform="matrix(0.69731251,0,0,0.69731251,13.352309,289.43257)">
      <rect
         transform="translate(0,287.36218)"
         y="-86.428574"
         x="-51.42857"
         height="942.85712"
         width="1511.4286"
         id="rect3778"
         style="fill:url(#linearGradient3849);fill-opacity:1;stroke:none" />
      <g
         id="g3806">
        <path
           style="fill:#552200;stroke:none"
           d="M 585.73488,922.26592 C 477.72083,904.08169 385.20097,804.20229 363.50826,682.36218 c -5.34972,-30.04743 -3.95617,-86.25495 2.98305,-120.31852 31.272,-153.50943 163.50815,-276.84845 337.08012,-314.40061 25.75137,-5.57129 38.49726,-6.50073 90,-6.56287 51.31426,-0.0619 64.68774,0.87198 92.38226,6.45118 178.70941,36.0019 333.69581,167.09472 412.74801,349.11653 19.5387,44.98866 19.1651,51.95149 -0.6313,11.76629 C 1259.1656,529.44021 1221.129,476.44457 1162.9133,420.10248 1029.7328,291.2083 852.60371,241.94138 688.28031,288.08742 c -31.61922,8.87945 -80.07348,30.05739 -106.00588,46.33208 -87.45814,54.88709 -148.38493,136.65104 -168.99666,226.79408 -7.14412,31.24397 -7.24472,91.22151 -0.20801,124.00574 19.64988,91.54929 86.65905,165.55669 169.41935,187.113 35.35598,9.20906 85.14535,3.87135 117.84072,-12.6332 19.19937,-9.69183 46.4998,-33.5598 56.49323,-49.39043 26.65057,-42.21723 24.53948,-94.63926 -5.03863,-125.11746 -26.00194,-26.79322 -58.88857,-30.04257 -81.56946,-8.0594 -14.08194,13.64878 -15.36597,34.54932 -2.6444,43.04375 5.09806,3.40405 18.26163,2.48445 19.82292,-1.38483 0.87645,-2.17209 1.52948,-1.65172 1.66665,1.32806 0.28057,6.0916 -8.1444,10.8148 -19.29063,10.8148 -10.70165,0 -25.1066,-15.56212 -27.82682,-30.06218 -4.5274,-24.13308 18.7782,-54.19857 48.77154,-62.91788 47.50331,-13.80957 101.07591,21.77286 118.87274,78.95423 27.86272,89.52308 -48.58714,189.77269 -156.63386,205.39583 -22.39879,3.23877 -47.84079,3.22451 -67.21823,-0.0377 l 0,3e-5 z"
           id="path3786"
           inkscape:connector-curvature="0" />
        <path
           inkscape:connector-curvature="0"
           id="path3800"
           d="M 117.06836,861.20784 C 35.716517,810.17348 -5.6264991,698.19477 17.765155,592.24234 23.533854,566.11303 43.556819,521.06733 60.626564,495.81694 137.55235,382.02467 286.09209,326.60272 439.26574,354.54216 c 22.72506,4.14513 33.3585,7.67713 75.08384,24.9398 41.57263,17.19952 52.08791,22.45131 72.63811,36.27878 132.60803,89.22697 214.04085,247.47937 216.86568,421.44582 0.69826,42.99773 -1.94486,48.51031 -4.46652,9.31556 C 794.43124,769.49468 781.44587,713.7951 753.24536,648.60238 688.73083,499.46054 561.86159,400.02342 413.28808,382.15186 384.69947,378.713 338.34443,379.57365 311.87477,384.03477 222.6047,399.08005 145.7836,444.80763 98.791034,510.87237 82.503195,533.77069 62.259881,582.30381 56.937233,611.21635 42.073856,691.954 71.456585,774.40723 131.22561,819.68293 c 25.53388,19.3422 67.64523,31.75701 99.6685,29.38319 18.80469,-1.39399 48.93465,-11.54391 62.34842,-21.00343 35.77196,-25.22672 51.68452,-68.38522 37.97904,-103.00789 -12.0484,-30.43658 -37.58614,-44.12282 -63.34182,-33.94623 -15.991,6.31839 -24.05661,22.81101 -16.61075,33.96583 2.98387,4.47019 13.95223,8.15056 16.51717,5.54224 1.43987,-1.46423 1.79373,-0.82334 0.90313,1.63565 -1.82053,5.027 -10.23041,6.01952 -19.25609,2.27263 -8.66568,-3.59743 -15.0988,-21.04121 -12.42722,-33.69707 4.44642,-21.06373 33.4249,-37.575 60.64313,-34.55301 43.10808,4.78623 74.52732,51.60796 69.71644,103.89322 -7.53189,81.85774 -103.1369,137.33592 -195.87977,113.66616 -19.2262,-4.9069 -39.82312,-13.47095 -54.41743,-22.62639 l -1e-5,3e-5 z"
           style="fill:#552200;stroke:none" />
        <path
           style="fill:#552200;stroke:none"
           d="m -97.476217,829.19957 c -5.809163,-76.4585 46.503038,-156.12779 125.650374,-191.36033 19.51881,-8.68883 57.948647,-17.19497 82.263393,-18.20838 109.57576,-4.56694 215.62984,64.54982 270.33997,176.18391 8.11687,16.56219 10.8921,25.06726 19.5962,60.05517 8.67223,34.85987 10.28681,44.1048 11.15323,63.86276 5.59098,127.4957 -57.42629,254.8633 -167.82283,339.1956 -27.28573,20.8438 -32.08006,21.7609 -8.1019,1.5499 47.12315,-39.7195 76.7389,-74.48 105.23494,-123.5159 65.19057,-112.1797 68.87954,-240.8325 9.88494,-344.73646 -11.35178,-19.99327 -33.89227,-49.3583 -49.31302,-64.24337 -52.00712,-50.20057 -117.81613,-77.8517 -182.53879,-76.69778 -22.433155,0.39996 -63.207432,10.41878 -84.3023,20.71427 -58.906957,28.74996 -97.92844,86.73238 -98.658044,146.59702 -0.311697,25.57473 11.689226,58.51106 28.403573,77.95323 9.81503,11.4168 30.6258089,25.95447 43.0641169,30.08301 33.1706681,11.00998 68.4386511,0.75894 84.1753961,-24.46658 13.834078,-22.1756 10.511198,-45.07 -8.241863,-56.78546 -11.643276,-7.2738 -26.062062,-4.63125 -29.694846,5.44223 -1.4558,4.03686 1.382997,12.82742 4.274923,13.23764 1.623434,0.23027 1.379646,0.76155 -0.622173,1.35591 -4.092316,1.21517 -8.718881,-3.71561 -10.593476,-11.28996 -1.799832,-7.27224 6.352649,-19.67831 15.748566,-23.96547 15.638051,-7.13534 39.988467,3.64533 50.957987,22.56069 17.37344,29.95804 2.20361,72.3473 -33.660515,94.05795 -56.148838,33.99013 -137.130373,-1.10059 -165.918542,-71.89552 -5.96797,-14.67626 -10.23716,-31.96763 -11.27931,-45.68408 l -10e-6,0 z"
           id="path3802"
           inkscape:connector-curvature="0" />
      </g>
      <g
         transform="matrix(0.62987634,0.33919607,-0.33919607,0.62987634,684.09614,320.15224)"
         id="g3811">
        <path
           inkscape:connector-curvature="0"
           id="path3813"
           d="M 585.73488,922.26592 C 477.72083,904.08169 385.20097,804.20229 363.50826,682.36218 c -5.34972,-30.04743 -3.95617,-86.25495 2.98305,-120.31852 31.272,-153.50943 163.50815,-276.84845 337.08012,-314.40061 25.75137,-5.57129 38.49726,-6.50073 90,-6.56287 51.31426,-0.0619 64.68774,0.87198 92.38226,6.45118 178.70941,36.0019 333.69581,167.09472 412.74801,349.11653 19.5387,44.98866 19.1651,51.95149 -0.6313,11.76629 C 1259.1656,529.44021 1221.129,476.44457 1162.9133,420.10248 1029.7328,291.2083 852.60371,241.94138 688.28031,288.08742 c -31.61922,8.87945 -80.07348,30.05739 -106.00588,46.33208 -87.45814,54.88709 -148.38493,136.65104 -168.99666,226.79408 -7.14412,31.24397 -7.24472,91.22151 -0.20801,124.00574 19.64988,91.54929 86.65905,165.55669 169.41935,187.113 35.35598,9.20906 85.14535,3.87135 117.84072,-12.6332 19.19937,-9.69183 46.4998,-33.5598 56.49323,-49.39043 26.65057,-42.21723 24.53948,-94.63926 -5.03863,-125.11746 -26.00194,-26.79322 -58.88857,-30.04257 -81.56946,-8.0594 -14.08194,13.64878 -15.36597,34.54932 -2.6444,43.04375 5.09806,3.40405 18.26163,2.48445 19.82292,-1.38483 0.87645,-2.17209 1.52948,-1.65172 1.66665,1.32806 0.28057,6.0916 -8.1444,10.8148 -19.29063,10.8148 -10.70165,0 -25.1066,-15.56212 -27.82682,-30.06218 -4.5274,-24.13308 18.7782,-54.19857 48.77154,-62.91788 47.50331,-13.80957 101.07591,21.77286 118.87274,78.95423 27.86272,89.52308 -48.58714,189.77269 -156.63386,205.39583 -22.39879,3.23877 -47.84079,3.22451 -67.21823,-0.0377 l 0,3e-5 z"
           style="fill:#552200;stroke:none" />
        <path
           style="fill:#552200;stroke:none"
           d="M 117.06836,861.20784 C 35.716517,810.17348 -5.6264991,698.19477 17.765155,592.24234 23.533854,566.11303 43.556819,521.06733 60.626564,495.81694 137.55235,382.02467 286.09209,326.60272 439.26574,354.54216 c 22.72506,4.14513 33.3585,7.67713 75.08384,24.9398 41.57263,17.19952 52.08791,22.45131 72.63811,36.27878 132.60803,89.22697 214.04085,247.47937 216.86568,421.44582 0.69826,42.99773 -1.94486,48.51031 -4.46652,9.31556 C 794.43124,769.49468 781.44587,713.7951 753.24536,648.60238 688.73083,499.46054 561.86159,400.02342 413.28808,382.15186 384.69947,378.713 338.34443,379.57365 311.87477,384.03477 222.6047,399.08005 145.7836,444.80763 98.791034,510.87237 82.503195,533.77069 62.259881,582.30381 56.937233,611.21635 42.073856,691.954 71.456585,774.40723 131.22561,819.68293 c 25.53388,19.3422 67.64523,31.75701 99.6685,29.38319 18.80469,-1.39399 48.93465,-11.54391 62.34842,-21.00343 35.77196,-25.22672 51.68452,-68.38522 37.97904,-103.00789 -12.0484,-30.43658 -37.58614,-44.12282 -63.34182,-33.94623 -15.991,6.31839 -24.05661,22.81101 -16.61075,33.96583 2.98387,4.47019 13.95223,8.15056 16.51717,5.54224 1.43987,-1.46423 1.79373,-0.82334 0.90313,1.63565 -1.82053,5.027 -10.23041,6.01952 -19.25609,2.27263 -8.66568,-3.59743 -15.0988,-21.04121 -12.42722,-33.69707 4.44642,-21.06373 33.4249,-37.575 60.64313,-34.55301 43.10808,4.78623 74.52732,51.60796 69.71644,103.89322 -7.53189,81.85774 -103.1369,137.33592 -195.87977,113.66616 -19.2262,-4.9069 -39.82312,-13.47095 -54.41743,-22.62639 l -1e-5,3e-5 z"
           id="path3815"
           inkscape:connector-curvature="0" />
        <path
           inkscape:connector-curvature="0"
           id="path3817"
           d="m -97.476217,829.19957 c -5.809163,-76.4585 46.503038,-156.12779 125.650374,-191.36033 19.51881,-8.68883 57.948647,-17.19497 82.263393,-18.20838 109.57576,-4.56694 215.62984,64.54982 270.33997,176.18391 8.11687,16.56219 10.8921,25.06726 19.5962,60.05517 8.67223,34.85987 10.28681,44.1048 11.15323,63.86276 5.59098,127.4957 -57.42629,254.8633 -167.82283,339.1956 -27.28573,20.8438 -32.08006,21.7609 -8.1019,1.5499 47.12315,-39.7195 76.7389,-74.48 105.23494,-123.5159 65.19057,-112.1797 68.87954,-240.8325 9.88494,-344.73646 -11.35178,-19.99327 -33.89227,-49.3583 -49.31302,-64.24337 -52.00712,-50.20057 -117.81613,-77.8517 -182.53879,-76.69778 -22.433155,0.39996 -63.207432,10.41878 -84.3023,20.71427 -58.906957,28.74996 -97.92844,86.73238 -98.658044,146.59702 -0.311697,25.57473 11.689226,58.51106 28.403573,77.95323 9.81503,11.4168 30.6258089,25.95447 43.0641169,30.08301 33.1706681,11.00998 68.4386511,0.75894 84.1753961,-24.46658 13.834078,-22.1756 10.511198,-45.07 -8.241863,-56.78546 -11.643276,-7.2738 -26.062062,-4.63125 -29.694846,5.44223 -1.4558,4.03686 1.382997,12.82742 4.274923,13.23764 1.623434,0.23027 1.379646,0.76155 -0.622173,1.35591 -4.092316,1.21517 -8.718881,-3.71561 -10.593476,-11.28996 -1.799832,-7.27224 6.352649,-19.67831 15.748566,-23.96547 15.638051,-7.13534 39.988467,3.64533 50.957987,22.56069 17.37344,29.95804 2.20361,72.3473 -33.660515,94.05795 -56.148838,33.99013 -137.130373,-1.10059 -165.918542,-71.89552 -5.96797,-14.67626 -10.23716,-31.96763 -11.27931,-45.68408 l -10e-6,0 z"
           style="fill:#552200;stroke:none" />
      </g>
    </g>
  </g>
</svg>
